<svg width="541" height="543" viewBox="0 0 541 543" fill="none" xmlns="http://www.w3.org/2000/svg">
<g opacity="0.7">
<path d="M512.447 466.049C510.291 441.267 496.925 424.77 475.819 420.933C460.683 418.166 447.561 420.715 436.812 428.485C425.69 436.531 419.481 448.58 416.124 457.936L416.119 457.936C412.366 452.927 407.829 448.55 402.679 444.986L405.111 405.911C405.304 402.812 402.95 400.146 399.851 399.953C396.751 399.76 394.085 402.114 393.892 405.213L391.785 439.074L391.785 439.069C384.219 436.049 376.158 434.462 368.007 434.385C365.177 434.341 362.35 434.483 359.541 434.807L362.173 392.516C362.366 389.417 360.008 386.75 356.908 386.557C353.814 386.365 351.143 388.718 350.95 391.818L348.114 437.375C325.922 444.853 314.181 464.42 309.888 473.199C305.499 472.49 301.071 472.029 296.628 471.821L299.641 423.403C299.834 420.304 297.481 417.638 294.381 417.445C291.282 417.252 288.616 419.606 288.423 422.705L285.356 471.98C277.649 472.483 270.06 474.159 262.86 476.954C260.222 461.946 251.517 448.69 238.796 440.306L241.57 395.734C241.763 392.634 239.405 389.968 236.305 389.775C233.21 389.582 230.54 391.936 230.347 395.035L227.895 434.431C208.797 426.232 189.401 429.819 178.683 433.105C178.645 425.852 177.395 418.661 174.993 411.824L176.913 380.985C177.106 377.885 174.747 375.219 171.653 375.026C168.553 374.833 165.882 377.186 165.689 380.286L164.753 395.326C159.159 389.787 151.53 385.643 141.275 384.09C114.549 380.073 97.8642 394.88 89.6455 408.307C82.8167 399.257 72.9058 394.139 60.7269 393.381C46.615 391.383 17.0321 396.244 6.93683 428.976L6.93653 428.981C0.992434 448.317 4.29897 469.315 15.8997 485.883C27.7913 503.189 46.9881 514.06 67.9485 515.349L440.44 538.533C460.362 539.788 479.839 532.287 493.772 517.992C507.27 504.229 514.092 485.26 512.449 466.05L512.447 466.049ZM225.296 513.89L68.6491 504.141C51.0832 503.086 34.9863 493.983 25.0284 479.474C15.3942 465.739 12.6415 448.332 17.5639 432.293C26.149 404.482 50.7788 403.969 57.7141 404.401L59.4832 404.511C71.7592 405.275 80.1208 411.167 84.868 422.529C85.7753 424.694 87.9354 426.066 90.2798 425.973C92.6244 425.874 94.6675 424.333 95.3933 422.103C95.8218 420.799 106.229 390.204 139.549 395.165C171.902 400.026 167.157 438.868 166.945 440.533L166.946 440.529C166.672 442.571 167.539 444.597 169.205 445.811C170.871 447.025 173.064 447.235 174.925 446.348C175.167 446.226 200.089 434.666 223.436 444.695L223.436 444.7C225.647 445.64 227.801 446.718 229.879 447.924C230.019 448.03 230.185 448.114 230.34 448.212C248.238 458.866 251.733 474.954 252.381 482.157L252.386 482.152C240.343 489.739 230.898 500.809 225.293 513.89L225.296 513.89ZM485.694 510.146L485.689 510.146C474.051 522.087 457.78 528.365 441.132 527.324L237.164 514.629C241.75 505.242 248.886 497.335 257.758 491.816C259.907 491.95 261.942 490.849 263.003 488.978C271.589 485.041 280.919 482.994 290.362 482.975L290.952 483.012C298.072 482.981 305.177 483.677 312.157 485.1C314.858 485.645 317.558 484.154 318.535 481.578C319.108 480.073 332.852 444.994 367.809 445.678L367.815 445.674C376.788 445.66 385.618 447.941 393.464 452.299C393.805 452.56 394.173 452.779 394.558 452.96C402.765 457.947 409.126 465.466 412.685 474.386C413.525 476.85 415.942 478.419 418.535 478.179C421.128 477.94 423.219 475.951 423.59 473.377C423.604 473.143 427.185 449.247 443.407 437.551C451.552 431.673 461.737 429.783 473.759 432.048C494.23 435.788 499.988 453.152 501.16 467.025C502.526 482.966 496.88 498.705 485.694 510.146Z" fill="url(#paint0_linear_66_69)"/>
<path d="M119.263 335.861C128.023 338.872 153.37 346.266 201.805 349.54C204.341 354.546 208.932 358.203 214.381 359.55C221.959 361.597 229.641 363.234 237.393 364.446C237.635 367.469 238.841 370.333 240.827 372.624C243.947 376.174 248.369 378.318 253.089 378.563L275.053 379.93C279.767 380.272 284.42 378.693 287.957 375.557C290.336 373.416 291.929 370.536 292.472 367.384C300.072 367.045 307.751 366.428 315.377 365.508L315.372 365.503C320.893 364.922 325.912 362.025 329.166 357.526C377.88 360.323 404.043 356.173 413.176 354.213L413.176 354.217C415.608 353.733 417.669 352.139 418.743 349.902C419.758 347.817 419.735 345.369 418.674 343.307C411.941 330.364 402.235 319.202 390.359 310.733C390.624 261.515 390.632 190.333 389.016 144.767C389.022 144.581 389.015 144.395 388.992 144.207C388.213 122.295 387.029 106.41 385.328 101.916C378.527 84.0812 357.352 69.2409 356.457 68.6179C356.369 68.6124 356.291 68.5341 356.221 68.4809L356.216 68.4854C356.041 68.3767 355.861 68.2824 355.676 68.1926C355.519 68.1143 355.353 68.0452 355.185 67.9907L354.667 67.8215C354.489 67.7713 354.31 67.7357 354.131 67.7148C353.956 67.6892 353.781 67.6783 353.604 67.682C353.425 67.6562 353.244 67.6449 353.063 67.6483C352.882 67.6469 352.7 67.6649 352.518 67.6878L351.983 67.7915L351.47 67.9308L351.465 67.9305C351.276 67.9921 351.09 68.0686 350.913 68.1554L350.647 68.2612C349.717 68.7463 328.909 79.7743 319.208 95.4131L320.211 55.08C320.226 54.8461 320.22 54.6159 320.195 54.3893C318.089 32.4185 290.215 17.5244 289.031 16.9072C288.283 16.5133 287.455 16.2905 286.605 16.2621C285.811 16.2078 285.012 16.3244 284.27 16.6109C283.008 17.0754 253.517 28.3995 248.698 49.9393C248.664 50.1671 248.65 50.3962 248.655 50.6264L244.692 90.7164C237.011 73.982 217.725 60.4716 216.862 59.8756L216.611 59.7377L216.612 59.7328C216.447 59.6247 216.267 59.5303 216.087 59.4408L215.595 59.239L215.078 59.0698C214.899 59.0245 214.721 58.9889 214.541 58.963C214.366 58.9424 214.191 58.9314 214.015 58.9303C213.835 58.9093 213.655 58.8981 213.474 58.8966C213.293 58.9 213.111 58.9131 212.928 58.936L212.394 59.0397L211.881 59.1791L211.876 59.1788C211.686 59.2452 211.5 59.3217 211.319 59.4034L211.053 59.5091C210.087 60.0165 187.236 72.1115 178.276 88.97C176.026 93.2182 172.886 108.835 169.396 130.481C169.351 130.654 169.32 130.833 169.299 131.018C162.05 176.041 153.226 246.674 147.387 295.537C135.281 302.327 123.808 311.618 115.251 324.349L115.256 324.349C113.943 326.264 113.611 328.684 114.355 330.883C115.135 333.211 116.943 335.051 119.261 335.861L119.263 335.861ZM179.534 137.584L229.866 140.717L229.861 140.717C228.517 145.652 227.505 150.677 226.832 155.748C224.519 173.094 220.865 198.952 216.964 226.179L167.615 223.113C172.091 188.378 176.145 159.326 179.529 137.584L179.534 137.584ZM280.368 367.192C279.083 368.266 277.426 368.789 275.757 368.646L253.793 367.279C252.119 367.214 250.54 366.49 249.398 365.264C248.838 364.676 248.55 363.881 248.595 363.071C252.759 320.543 264.773 311.677 268.378 309.954C271.756 312.111 282.579 322.398 281.431 365.129L281.436 365.129C281.371 365.932 280.987 366.677 280.368 367.192ZM314.032 354.278C306.944 355.128 299.794 355.72 292.739 356.045C291.967 304.309 272.2 298.926 269.826 298.47L269.821 298.475C269.348 298.382 268.865 298.351 268.384 298.385C265.972 298.543 245.557 301.451 238.435 353.213L238.44 353.209C231.323 352.081 224.274 350.585 217.309 348.738C213.552 347.716 211.116 344.889 211.563 342.02C216.208 310.393 231.814 203.573 238.013 157.269C243.914 113.16 273.409 96.8311 281.93 92.983C289.911 97.8436 317.152 117.714 317.537 162.219C317.948 209.073 320.184 316.519 320.864 348.347C320.909 351.241 317.975 353.808 314.027 354.286L314.032 354.278ZM379.147 236.322L329.818 233.257C329.32 205.804 328.911 179.689 328.76 162.145L328.76 162.14C328.721 157.026 328.34 151.919 327.618 146.85L377.951 149.983C378.592 171.911 379.011 201.256 379.145 236.278L379.147 236.322ZM406.251 343.995C395.722 345.806 371.833 348.482 332.065 346.34C331.836 335.567 331.452 317.599 331.031 296.623C346.731 300.301 387.466 312.538 406.245 344.009L406.251 343.995ZM330.8 285.073C330.539 272.053 330.279 258.237 330.022 244.517L379.189 247.577C379.228 264.956 379.216 283.614 379.118 303.349L379.113 303.353C364.055 294.779 347.753 288.603 330.797 285.038L330.8 285.073ZM352.8 79.9312C358.333 84.2579 370.524 94.7133 374.781 105.947C375.89 108.873 376.833 120.296 377.545 138.726L325.317 135.48C324.489 132.361 323.528 129.405 322.48 126.59C325.811 107.732 327.387 103.79 327.792 103.027C333.386 92.3727 346.78 83.5053 352.797 79.8971L352.8 79.9312ZM285.936 28.07C293.519 32.5438 307.641 43.2714 308.97 55.1582L307.745 101.026C296.866 87.8634 285.669 82.1128 284.771 81.6749L284.766 81.6795C284.62 81.5921 284.468 81.5142 284.31 81.4505L284.247 81.4466L283.825 81.3078L283.713 81.3008L283.718 81.306C283.55 81.2564 283.38 81.2214 283.206 81.2008C282.286 81.0457 281.336 81.1284 280.456 81.4454C279.501 81.7676 267.647 86.0934 255.208 97.8437L259.717 52.1318C262.534 40.5118 277.912 31.5962 285.935 28.0689L285.936 28.07ZM213.15 71.2056C218.673 75.5317 230.864 85.9871 235.116 97.2204C235.423 98.0271 236.511 102.165 237.471 121.324L237.475 121.33C236.049 124.054 234.754 126.855 233.602 129.714L181.306 126.459C184.298 108.259 186.65 97.0413 188.113 94.2756C193.728 83.6811 207.084 74.8108 213.15 71.2056ZM166.179 234.315L215.381 237.378C213.426 250.959 211.455 264.628 209.58 277.525C192.3 278.94 175.348 283.036 159.329 289.665C161.661 270.046 164.046 251.535 166.179 234.315ZM207.916 289.006C204.918 309.661 202.321 327.414 200.739 338.212C160.973 335.404 137.588 329.746 127.364 326.683C149.918 297.736 191.913 290.662 207.917 288.983L207.916 289.006Z" fill="url(#paint1_linear_66_69)"/>
<path d="M260.538 156.741L251.108 156.154L251.112 156.154C249.582 155.986 248.051 156.453 246.869 157.441C245.692 158.434 244.972 159.867 244.876 161.402C244.78 162.937 245.318 164.448 246.363 165.579C247.413 166.706 248.874 167.36 250.414 167.382L259.844 167.969L259.839 167.969C262.849 168.019 265.362 165.691 265.549 162.689C265.736 159.687 263.531 157.064 260.538 156.741Z" fill="url(#paint2_linear_66_69)"/>
<path d="M258.444 190.376L249.014 189.789L249.019 189.789C245.92 189.596 243.254 191.95 243.061 195.049C242.868 198.149 245.221 200.815 248.321 201.008L257.751 201.595L257.746 201.594C260.846 201.787 263.516 199.434 263.709 196.334C263.902 193.235 261.544 190.569 258.444 190.376Z" fill="url(#paint3_linear_66_69)"/>
<path d="M256.35 224.023L246.92 223.436L246.925 223.436C243.825 223.243 241.159 225.597 240.967 228.697C240.774 231.796 243.127 234.462 246.227 234.655L255.657 235.242L255.652 235.242C258.751 235.434 261.422 233.081 261.615 229.982C261.808 226.882 259.45 224.216 256.35 224.023Z" fill="url(#paint4_linear_66_69)"/>
<path d="M254.257 257.645L244.827 257.058L244.832 257.059C243.302 256.89 241.771 257.357 240.589 258.346C239.412 259.339 238.691 260.771 238.596 262.307C238.5 263.842 239.037 265.353 240.082 266.484C241.132 267.611 242.594 268.265 244.133 268.292L253.563 268.879L253.558 268.879C256.569 268.924 259.082 266.595 259.269 263.593C259.455 260.591 257.251 257.969 254.257 257.645Z" fill="url(#paint5_linear_66_69)"/>
</g>
<defs>
<linearGradient id="paint0_linear_66_69" x1="19.2628" y1="446.315" x2="510.781" y2="530.918" gradientUnits="userSpaceOnUse">
<stop/>
<stop offset="1" stop-color="#666666"/>
</linearGradient>
<linearGradient id="paint1_linear_66_69" x1="130.661" y1="207.083" x2="430.843" y2="233.709" gradientUnits="userSpaceOnUse">
<stop/>
<stop offset="1" stop-color="#666666"/>
</linearGradient>
<linearGradient id="paint2_linear_66_69" x1="245.458" y1="162.006" x2="265.679" y2="164.436" gradientUnits="userSpaceOnUse">
<stop/>
<stop offset="1" stop-color="#666666"/>
</linearGradient>
<linearGradient id="paint3_linear_66_69" x1="243.642" y1="195.652" x2="263.839" y2="198.08" gradientUnits="userSpaceOnUse">
<stop/>
<stop offset="1" stop-color="#666666"/>
</linearGradient>
<linearGradient id="paint4_linear_66_69" x1="241.548" y1="229.299" x2="261.745" y2="231.727" gradientUnits="userSpaceOnUse">
<stop/>
<stop offset="1" stop-color="#666666"/>
</linearGradient>
<linearGradient id="paint5_linear_66_69" x1="239.177" y1="262.913" x2="259.398" y2="265.342" gradientUnits="userSpaceOnUse">
<stop/>
<stop offset="1" stop-color="#666666"/>
</linearGradient>
</defs>
</svg>
